<?xml version="1.0" encoding="utf-8"?>
<svg version="1.1" id="Layer_1" x="0px" y="0px" width="100%" viewBox="0 0 585 426" enable-background="new 0 0 585 426" xmlns="http://www.w3.org/2000/svg">
  <defs/>
  <path fill="#7C72FD" opacity="1.000000" stroke="none" d="&#10;M9.980121,388.913055 &#10;&#9;C8.467584,389.537659 6.955052,390.162292 4.364500,391.232086 &#10;&#9;C6.515624,387.117462 8.184937,383.727112 10.026332,380.432983 &#10;&#9;C27.011070,350.048309 44.021671,319.678070 61.032440,289.307953 &#10;&#9;C78.036201,258.950317 95.049767,228.598190 112.057167,198.242599 &#10;&#9;C127.386246,170.882538 142.714005,143.521713 158.040146,116.160004 &#10;&#9;C173.700317,88.201897 189.339294,60.231892 205.030380,32.291142 &#10;&#9;C208.628738,25.883612 212.353653,19.545055 216.154556,13.255877 &#10;&#9;C216.650528,12.435224 217.951691,12.101205 218.770721,12.100887 &#10;&#9;C218.219696,14.345743 217.401169,16.031572 217.401505,17.717239 &#10;&#9;C217.402908,24.857521 217.779068,31.997686 217.782898,39.138020 &#10;&#9;C217.817810,104.266983 217.803528,169.395981 217.803268,234.524963 &#10;&#9;C217.803223,245.663132 217.801590,256.801300 217.509766,268.109863 &#10;&#9;C216.200134,268.841156 215.170090,269.382477 214.164413,269.965759 &#10;&#9;C157.647400,302.743683 101.120117,335.503937 44.627438,368.323700 &#10;&#9;C33.011623,375.071991 21.525837,382.044098 9.980121,388.913055 &#10;z"/>
  <path fill="#0C0D0D" opacity="1.000000" stroke="none" d="&#10;M10.113189,389.124542 &#10;&#9;C21.525837,382.044098 33.011623,375.071991 44.627438,368.323700 &#10;&#9;C101.120117,335.503937 157.647400,302.743683 214.164413,269.965759 &#10;&#9;C215.170090,269.382477 216.200134,268.841156 217.818588,268.298981 &#10;&#9;C231.382431,275.809937 244.354279,283.288818 257.309265,290.796783 &#10;&#9;C313.312531,323.253143 369.305054,355.728088 425.340332,388.129150 &#10;&#9;C426.945160,389.057098 428.984619,389.233459 430.821411,389.760284 &#10;&#9;C427.101562,394.164642 422.477142,391.640289 418.192200,391.315002 &#10;&#9;C415.762360,391.130493 413.369781,390.062347 410.960083,390.061127 &#10;&#9;C286.040131,389.998260 161.120148,389.973969 36.200287,390.094269 &#10;&#9;C28.987038,390.101227 21.783144,391.504791 14.555259,391.876312 &#10;&#9;C13.166115,391.947723 11.684958,390.228943 10.113189,389.124542 &#10;z"/>
  <path fill="#0DDFFC" opacity="1.000000" stroke="none" d="&#10;M430.578369,389.535034 &#10;&#9;C428.984619,389.233459 426.945160,389.057098 425.340332,388.129150 &#10;&#9;C369.305054,355.728088 313.312531,323.253143 257.309265,290.796783 &#10;&#9;C244.354279,283.288818 231.382431,275.809937 218.109528,268.128540 &#10;&#9;C217.801590,256.801300 217.803223,245.663132 217.803268,234.524963 &#10;&#9;C217.803528,169.395981 217.817810,104.266983 217.782898,39.138020 &#10;&#9;C217.779068,31.997686 217.402908,24.857521 217.401505,17.717239 &#10;&#9;C217.401169,16.031572 218.219696,14.345743 218.936920,12.416054 &#10;&#9;C231.271530,33.780647 243.277863,55.418911 255.403564,76.990074 &#10;&#9;C270.153625,103.229912 285.063599,129.379944 299.788574,155.633759 &#10;&#9;C308.307434,170.822433 316.598297,186.138992 324.968567,202.001404 &#10;&#9;C324.521362,203.263550 324.097351,203.922241 323.740875,204.668350 &#10;&#9;C323.808411,204.755768 323.638397,204.614685 323.286011,204.629974 &#10;&#9;C319.638794,206.730011 316.343933,208.814789 312.981689,210.877777 &#10;&#9;C312.914307,210.855988 312.862579,210.987778 312.591797,210.941071 &#10;&#9;C312.063232,211.127792 311.805450,211.361252 311.321533,211.665558 &#10;&#9;C311.095398,211.736404 310.877228,212.157211 310.537903,212.156769 &#10;&#9;C304.426971,215.709686 298.655396,219.263031 292.600525,222.864365 &#10;&#9;C292.172668,223.038055 292.028137,223.163742 291.586670,223.234589 &#10;&#9;C290.730988,223.696625 290.172272,224.213470 289.391052,224.761169 &#10;&#9;C289.168579,224.792023 288.887238,225.142181 288.630737,225.091187 &#10;&#9;C288.135284,225.264450 287.896332,225.488739 287.414185,225.760468 &#10;&#9;C287.170990,225.807892 286.897217,226.220932 286.578613,226.191193 &#10;&#9;C285.111725,227.026855 283.963470,227.892242 282.549347,228.787888 &#10;&#9;C282.149872,228.936371 282.016266,229.054581 281.560944,229.134628 &#10;&#9;C279.977661,229.951218 278.716095,230.805954 277.265076,231.699249 &#10;&#9;C277.075562,231.737793 276.934784,232.098038 276.597931,232.099075 &#10;&#9;C274.616272,233.182968 272.971466,234.265823 271.132996,235.367767 &#10;&#9;C270.939331,235.386841 270.765015,235.734833 270.487061,235.729858 &#10;&#9;C270.009155,236.016678 269.809204,236.308487 269.666626,236.647476 &#10;&#9;C269.723969,236.694641 269.666748,236.557602 269.327881,236.542313 &#10;&#9;C267.743652,237.354370 266.498291,238.181717 265.145630,238.975754 &#10;&#9;C265.038330,238.942444 264.970032,239.156525 264.647705,239.121948 &#10;&#9;C262.937927,240.268768 261.550537,241.450150 260.047455,242.989746 &#10;&#9;C260.997528,244.111862 262.009460,244.967941 263.136841,245.626312 &#10;&#9;C304.583710,269.830322 346.056427,293.990112 387.459473,318.268768 &#10;&#9;C389.930725,319.717896 391.855743,322.098389 394.034943,324.045532 &#10;&#9;C406.135071,345.800293 418.235199,367.555054 430.578369,389.535034 &#10;z"/>
  <path fill="#69AF26" opacity="1.000000" stroke="none" d="&#10;M568.740845,174.925308 &#10;&#9;C568.678223,175.523987 568.615540,176.122681 568.046326,177.218842 &#10;&#9;C567.037476,189.610962 566.316345,201.501221 566.078491,213.401169 &#10;&#9;C565.581543,238.266785 565.339478,263.137482 564.984009,288.474304 &#10;&#9;C564.655640,311.546875 564.278687,334.150635 564.038879,356.755829 &#10;&#9;C563.906494,369.234436 564.165039,381.718506 563.930969,394.194183 &#10;&#9;C563.811401,400.567078 562.994446,406.926849 562.460693,413.698273 &#10;&#9;C560.879517,412.980957 559.851013,412.514374 558.862000,412.049805 &#10;&#9;C558.901550,412.051819 558.891846,412.130402 558.913940,411.769836 &#10;&#9;C558.186523,410.316986 557.437012,409.224731 556.735718,408.130157 &#10;&#9;C556.783936,408.127869 556.775757,408.224060 556.775269,407.903717 &#10;&#9;C556.390686,407.112793 556.006653,406.642212 555.694214,406.129089 &#10;&#9;C555.765869,406.086548 555.844360,406.233551 555.731323,405.991699 &#10;&#9;C555.360535,405.508240 555.102844,405.266632 554.891846,405.037842 &#10;&#9;C554.938538,405.050659 554.908997,405.142914 554.878052,404.829834 &#10;&#9;C554.482544,404.029022 554.117981,403.541321 553.813477,403.067932 &#10;&#9;C553.873535,403.082184 553.837402,403.200287 553.818481,402.881897 &#10;&#9;C553.432617,402.069977 553.065796,401.576385 552.753906,401.108826 &#10;&#9;C552.808899,401.134857 552.746704,401.239441 552.794800,400.868652 &#10;&#9;C552.085327,399.425140 551.327881,398.352386 550.625610,397.193665 &#10;&#9;C550.680847,397.107635 550.851746,397.219879 550.727478,396.981445 &#10;&#9;C550.324402,396.522186 550.045593,396.301331 549.816101,396.089783 &#10;&#9;C549.865417,396.099121 549.838318,396.195740 549.822083,395.877441 &#10;&#9;C549.445312,395.062622 549.084717,394.566132 548.776733,394.097107 &#10;&#9;C548.829224,394.124634 548.765381,394.224609 548.815186,393.856079 &#10;&#9;C547.834290,392.016083 546.803589,390.544647 545.837524,389.048828 &#10;&#9;C545.902100,389.024414 545.947693,389.154663 545.835938,388.929138 &#10;&#9;C545.493103,388.462860 545.262146,388.222137 544.946289,387.896423 &#10;&#9;C544.861511,387.811493 544.906189,387.575653 544.877197,387.214661 &#10;&#9;C544.478394,386.263275 544.108643,385.672882 543.803833,385.056030 &#10;&#9;C543.868713,385.029572 543.917786,385.160858 543.772461,384.934998 &#10;&#9;C543.348694,384.487579 543.070251,384.266052 542.549500,383.816986 &#10;&#9;C523.466248,350.530640 504.594879,317.489105 485.799194,284.404572 &#10;&#9;C478.095612,270.844574 470.555481,257.191742 462.970154,243.165802 &#10;&#9;C463.135101,242.212601 463.270966,241.674713 463.651917,240.916977 &#10;&#9;C469.220581,231.671936 474.578339,222.666672 479.862244,213.618286 &#10;&#9;C507.630829,166.066269 535.387329,118.507156 563.107788,70.927071 &#10;&#9;C564.002258,69.391808 564.461548,67.603004 565.388794,65.838287 &#10;&#9;C566.785278,64.657578 567.916626,63.570988 568.981812,62.892605 &#10;&#9;C568.916504,66.410919 568.986023,69.522804 568.905701,72.630814 &#10;&#9;C568.636719,83.039742 568.132996,93.445885 568.052063,103.855690 &#10;&#9;C567.908813,122.281975 567.987427,140.710220 568.042358,159.137436 &#10;&#9;C568.048218,161.085312 568.516357,163.031815 568.770020,164.978958 &#10;&#9;C568.815491,165.737976 568.861084,166.496994 568.703003,167.806900 &#10;&#9;C568.574768,168.898453 568.650269,169.439117 568.725708,169.979797 &#10;&#9;C568.778320,170.436356 568.830994,170.892914 568.661804,171.909866 &#10;&#9;C568.540283,173.288605 568.640564,174.106964 568.740845,174.925308 &#10;z"/>
  <path fill="#CAFA06" opacity="1.000000" stroke="none" d="&#10;M565.123657,65.932404 &#10;&#9;C564.461548,67.603004 564.002258,69.391808 563.107788,70.927071 &#10;&#9;C535.387329,118.507156 507.630829,166.066269 479.862244,213.618286 &#10;&#9;C474.578339,222.666672 469.220581,231.671936 463.214600,241.021164 &#10;&#9;C460.062439,241.570175 457.592743,241.990280 455.122894,241.991425 &#10;&#9;C401.058594,242.016663 346.994324,241.995255 292.930023,241.983185 &#10;&#9;C287.640869,241.982010 282.319458,242.341171 277.072876,241.868683 &#10;&#9;C272.990295,241.501038 269.000854,240.098892 264.970032,239.156525 &#10;&#9;C264.970032,239.156525 265.038330,238.942444 265.484467,239.000793 &#10;&#9;C267.175964,238.225281 268.421356,237.391434 269.666748,236.557587 &#10;&#9;C269.666748,236.557602 269.723969,236.694641 269.936829,236.626556 &#10;&#9;C270.354767,236.283920 270.559906,236.009369 270.765015,235.734833 &#10;&#9;C270.765015,235.734833 270.939331,235.386841 271.490204,235.488693 &#10;&#9;C273.672302,234.426376 275.303558,233.262207 276.934784,232.098038 &#10;&#9;C276.934784,232.098038 277.075562,231.737793 277.639771,231.785507 &#10;&#9;C279.430206,230.946411 280.656464,230.059601 281.882690,229.172791 &#10;&#9;C282.016266,229.054581 282.149872,228.936371 282.883911,228.832458 &#10;&#9;C284.621948,227.971512 285.759583,227.096222 286.897217,226.220947 &#10;&#9;C286.897217,226.220932 287.170990,225.807892 287.658386,225.774689 &#10;&#9;C288.491241,225.663406 288.738403,225.463638 288.887238,225.142181 &#10;&#9;C288.887238,225.142181 289.168579,224.792023 289.698608,224.804962 &#10;&#9;C290.780273,224.308411 291.331940,223.798920 291.883606,223.289429 &#10;&#9;C292.028137,223.163742 292.172668,223.038055 292.960571,222.885101 &#10;&#9;C299.361664,219.290955 305.119446,215.724075 310.877228,212.157196 &#10;&#9;C310.877228,212.157211 311.095398,211.736404 311.582703,211.684052 &#10;&#9;C312.334167,211.417053 312.598389,211.202408 312.862579,210.987778 &#10;&#9;C312.862579,210.987778 312.914307,210.855988 313.340546,210.926025 &#10;&#9;C317.057312,208.868927 320.347870,206.741806 323.638397,204.614685 &#10;&#9;C323.638397,204.614685 323.808411,204.755768 324.101593,204.740799 &#10;&#9;C325.921539,203.460037 327.448273,202.194229 328.975037,200.928436 &#10;&#9;C328.975037,200.928436 328.991882,200.991776 329.198547,200.883240 &#10;&#9;C329.601471,200.491394 329.797699,200.208069 329.993958,199.924744 &#10;&#9;C329.993958,199.924744 329.996765,199.988205 330.336334,200.006409 &#10;&#9;C331.779297,199.325333 332.882690,198.626038 333.986053,197.926758 &#10;&#9;C333.986053,197.926743 333.993774,197.992828 334.210144,197.912750 &#10;&#9;C334.699249,197.615189 334.971985,197.397690 335.244720,197.180206 &#10;&#9;C335.244720,197.180191 335.495483,197.041321 335.899719,196.926666 &#10;&#9;C336.536804,196.522522 336.769653,196.233032 337.002533,195.943558 &#10;&#9;C337.002533,195.943558 337.004059,196.001099 337.346344,196.009857 &#10;&#9;C338.787659,195.318512 339.886719,194.618439 340.985748,193.918350 &#10;&#9;C340.985748,193.918350 340.993011,193.992676 341.189392,193.882538 &#10;&#9;C341.587677,193.498001 341.789612,193.223618 341.991577,192.949234 &#10;&#9;C341.991577,192.949234 341.999084,193.003632 342.244568,192.935730 &#10;&#9;C342.773956,192.635056 343.057892,192.402267 343.341827,192.169479 &#10;&#9;C343.341827,192.169479 343.523987,192.030136 343.924164,191.953735 &#10;&#9;C344.641449,191.641098 344.958557,191.404877 345.275665,191.168640 &#10;&#9;C345.275665,191.168640 345.510986,191.032043 345.905029,190.907684 &#10;&#9;C346.521393,190.479370 346.743652,190.175446 346.965942,189.871521 &#10;&#9;C346.965942,189.871521 346.993652,189.976517 347.123260,189.860687 &#10;&#9;C347.479523,189.554291 347.696686,189.353439 347.904297,189.142288 &#10;&#9;C347.904297,189.142288 348.351440,189.055511 348.859192,188.975586 &#10;&#9;C349.674438,188.662048 349.981995,188.428436 350.289551,188.194824 &#10;&#9;C350.289551,188.194839 350.517761,188.054581 350.975464,188.010040 &#10;&#9;C351.947723,187.603134 352.462311,187.240753 352.976898,186.878357 &#10;&#9;C358.032990,183.912933 363.107880,180.978897 368.136078,177.966919 &#10;&#9;C370.196655,176.732605 372.156433,175.329956 374.749268,173.867813 &#10;&#9;C375.559174,173.468979 375.781860,173.206207 376.004547,172.943436 &#10;&#9;C376.004547,172.943436 376.002716,173.006302 376.232422,172.931793 &#10;&#9;C376.741150,172.633148 377.020172,172.409042 377.299164,172.184921 &#10;&#9;C377.299164,172.184921 377.516541,172.044189 377.973389,172.012390 &#10;&#9;C378.958588,171.627731 379.486969,171.274857 380.015320,170.921997 &#10;&#9;C380.015320,170.921982 380.002838,171.008057 380.196472,170.891296 &#10;&#9;C380.591339,170.496704 380.792542,170.218872 380.993774,169.941040 &#10;&#9;C380.993774,169.941040 381.001190,169.997925 381.343201,170.005081 &#10;&#9;C382.788177,169.316040 383.891113,168.619843 384.994049,167.923645 &#10;&#9;C384.994049,167.923645 384.994598,167.990036 385.340637,167.996033 &#10;&#9;C387.121155,166.978760 388.555664,165.955490 389.990173,164.932220 &#10;&#9;C389.990173,164.932220 389.996918,164.994522 390.346313,165.017334 &#10;&#9;C392.123627,163.999405 393.551575,162.958664 394.979492,161.917908 &#10;&#9;C394.979492,161.917908 394.986481,161.987350 395.194916,161.902557 &#10;&#9;C395.672180,161.603058 395.940979,161.388336 396.209778,161.173615 &#10;&#9;C400.157440,158.797379 404.105072,156.421143 408.664520,153.918076 &#10;&#9;C409.519226,153.509354 409.762146,153.227448 410.005066,152.945557 &#10;&#9;C410.005035,152.945541 410.001831,153.007233 410.243683,152.941864 &#10;&#9;C410.772858,152.645874 411.060181,152.415268 411.347504,152.184662 &#10;&#9;C411.347504,152.184662 411.537140,152.041885 411.934692,151.958435 &#10;&#9;C412.643280,151.640640 412.954315,151.406311 413.265350,151.171967 &#10;&#9;C413.265350,151.171967 413.493530,151.036453 413.893005,150.933151 &#10;&#9;C414.527679,150.538406 414.762848,150.246964 414.998016,149.955521 &#10;&#9;C414.998016,149.955521 415.004089,150.006897 415.248291,149.940277 &#10;&#9;C415.773956,149.641571 416.055450,149.409470 416.336914,149.177368 &#10;&#9;C416.336945,149.177383 416.519775,149.040329 416.925964,148.964600 &#10;&#9;C417.656067,148.649582 417.979980,148.410294 418.303894,148.170990 &#10;&#9;C418.303894,148.170990 418.500763,148.040634 418.988953,148.042572 &#10;&#9;C420.313019,147.336639 421.148895,146.628769 421.984772,145.920898 &#10;&#9;C421.984772,145.920898 421.990967,145.989182 422.216339,145.915680 &#10;&#9;C422.724335,145.619720 423.006958,145.397278 423.289581,145.174835 &#10;&#9;C423.289581,145.174835 423.500366,145.046875 423.922699,144.974030 &#10;&#9;C424.673737,144.657623 425.002472,144.414062 425.331177,144.170486 &#10;&#9;C425.331177,144.170486 425.522308,144.035172 425.903076,143.929047 &#10;&#9;C426.523163,143.534851 426.762512,143.246796 427.001862,142.958740 &#10;&#9;C427.001862,142.958755 427.005005,143.007736 427.250854,142.945343 &#10;&#9;C427.777802,142.653793 428.058960,142.424652 428.340088,142.195511 &#10;&#9;C428.340088,142.195511 428.544373,142.045929 428.934052,141.954773 &#10;&#9;C429.617432,141.637802 429.911163,141.411987 430.204865,141.186172 &#10;&#9;C430.204865,141.186172 430.484253,141.041199 430.895020,140.919357 &#10;&#9;C431.535919,140.514771 431.766083,140.232025 431.996216,139.949280 &#10;&#9;C431.996216,139.949280 431.997009,140.002975 432.343262,140.023529 &#10;&#9;C433.788910,139.338272 434.888245,138.632431 435.987610,137.926605 &#10;&#9;C435.987610,137.926605 435.994202,137.989807 436.311646,137.990570 &#10;&#9;C437.412323,137.302292 438.195618,136.613266 438.978912,135.924255 &#10;&#9;C438.978912,135.924255 438.993744,135.986435 439.361511,136.001358 &#10;&#9;C441.143982,134.989212 442.558716,133.962143 443.973419,132.935074 &#10;&#9;C443.973419,132.935074 443.990265,132.995621 444.218811,132.924591 &#10;&#9;C444.726746,132.632156 445.006134,132.410782 445.285522,132.189423 &#10;&#9;C445.285553,132.189423 445.522339,132.050415 445.984039,132.006104 &#10;&#9;C446.960022,131.597580 447.474304,131.233383 447.988586,130.869202 &#10;&#9;C455.442230,126.547066 462.932800,122.287018 470.339935,117.886612 &#10;&#9;C479.026489,112.726143 487.640503,107.443573 496.907166,102.032333 &#10;&#9;C498.025391,101.540390 498.522430,101.230080 499.019501,100.919769 &#10;&#9;C499.019501,100.919769 499.005371,101.012024 499.198334,100.897812 &#10;&#9;C499.592255,100.505829 499.793213,100.228058 499.994202,99.950287 &#10;&#9;C499.994202,99.950294 500.002716,100.004219 500.233368,99.935471 &#10;&#9;C500.734741,99.644402 501.005493,99.422073 501.276215,99.199753 &#10;&#9;C501.276215,99.199753 501.507812,99.060196 501.974060,99.031464 &#10;&#9;C502.964172,98.639915 503.488007,98.277100 504.011810,97.914276 &#10;&#9;C504.011810,97.914268 504.003479,98.003883 504.193176,97.885773 &#10;&#9;C504.587280,97.492897 504.791626,97.218117 504.995972,96.943344 &#10;&#9;C504.995972,96.943336 504.998688,97.000816 505.281830,96.987625 &#10;&#9;C506.047394,96.625305 506.529846,96.276176 507.012268,95.927032 &#10;&#9;C507.012268,95.927025 507.003143,95.993645 507.348114,96.004288 &#10;&#9;C509.123413,94.986130 510.553711,93.957329 511.984039,92.928520 &#10;&#9;C511.984039,92.928520 511.991028,92.994133 512.223511,92.920990 &#10;&#9;C512.744751,92.623962 513.033447,92.400070 513.322205,92.176193 &#10;&#9;C513.322205,92.176193 513.515808,92.041031 514.001892,92.039963 &#10;&#9;C515.322388,91.335236 516.156738,90.631584 516.991150,89.927933 &#10;&#9;C516.991150,89.927933 516.996643,89.991463 517.336243,90.002235 &#10;&#9;C518.778564,89.312996 519.881287,88.612991 520.984009,87.912979 &#10;&#9;C520.984009,87.912979 520.993347,87.991646 521.186340,87.875549 &#10;&#9;C521.584778,87.483208 521.790222,87.206963 521.995667,86.930710 &#10;&#9;C521.995667,86.930710 521.992188,86.993248 522.332642,87.009827 &#10;&#9;C523.778259,86.322968 524.883423,85.619522 525.988525,84.916077 &#10;&#9;C525.988525,84.916084 525.988525,84.984055 526.270874,84.970070 &#10;&#9;C529.833557,84.465706 532.929993,83.703438 533.988037,79.927460 &#10;&#9;C533.988037,79.927460 533.995483,79.992188 534.224609,79.917442 &#10;&#9;C534.738342,79.620308 535.023010,79.397926 535.307617,79.175537 &#10;&#9;C535.307617,79.175529 535.503174,79.046700 535.957397,79.034790 &#10;&#9;C536.945312,78.654549 537.478943,78.286224 538.012634,77.917892 &#10;&#9;C538.012634,77.917885 538.004517,78.004921 538.195557,77.888000 &#10;&#9;C538.590027,77.496078 538.793396,77.221069 538.996765,76.946068 &#10;&#9;C538.996765,76.946068 539.001587,77.004082 539.235107,76.935478 &#10;&#9;C539.745544,76.642014 540.022339,76.417145 540.299194,76.192276 &#10;&#9;C540.299194,76.192276 540.525757,76.048477 540.982788,76.002258 &#10;&#9;C541.966003,75.608940 542.492249,75.261848 543.018433,74.914757 &#10;&#9;C543.018433,74.914757 543.003113,75.010094 543.192322,74.894150 &#10;&#9;C543.585693,74.504692 543.789856,74.231178 543.994019,73.957664 &#10;&#9;C543.994019,73.957664 544.002441,74.005447 544.251343,73.941528 &#10;&#9;C544.782410,73.642715 545.064636,73.407814 545.346863,73.172913 &#10;&#9;C545.346863,73.172905 545.528748,73.035110 545.930176,72.965668 &#10;&#9;C546.647461,72.658539 546.963379,72.420837 547.279297,72.183136 &#10;&#9;C547.279297,72.183128 547.521057,72.037979 547.911743,71.910507 &#10;&#9;C548.539490,71.503738 548.776428,71.224434 549.013428,70.945122 &#10;&#9;C549.013428,70.945122 549.009216,71.008217 549.284424,70.978882 &#10;&#9;C550.045593,70.603920 550.531677,70.258293 551.017700,69.912666 &#10;&#9;C551.017700,69.912666 551.001404,69.991661 551.333008,69.996849 &#10;&#9;C552.772156,69.304329 553.879822,68.606621 554.987427,67.908920 &#10;&#9;C554.987427,67.908920 554.981018,67.979774 555.294434,67.963501 &#10;&#9;C556.402039,67.271889 557.196228,66.596558 557.990356,65.921219 &#10;&#9;C557.990356,65.921227 557.994141,65.994141 558.210449,65.908394 &#10;&#9;C558.708191,65.602455 558.989563,65.382263 559.270996,65.162071 &#10;&#9;C559.270996,65.162071 559.472229,65.033478 559.878174,64.954376 &#10;&#9;C560.517944,64.567574 560.751709,64.259880 560.985535,63.952183 &#10;&#9;C560.985535,63.952187 561.000427,64.001282 561.242676,63.934776 &#10;&#9;C561.762024,63.638336 562.039001,63.408398 562.316040,63.178452 &#10;&#9;C562.316040,63.178448 562.515625,63.047321 562.949646,63.078072 &#10;&#9;C563.963623,64.050018 564.543640,64.991211 565.123657,65.932404 &#10;z"/>
  <path fill="#0C0D0C" opacity="1.000000" stroke="none" d="&#10;M544.906189,387.575653 &#10;&#9;C544.906189,387.575653 544.861511,387.811493 545.003174,388.159607 &#10;&#9;C545.412415,388.723328 545.680054,388.938995 545.947693,389.154663 &#10;&#9;C545.947693,389.154663 545.902100,389.024414 545.894958,389.387329 &#10;&#9;C546.846985,391.241699 547.806213,392.733154 548.765381,394.224609 &#10;&#9;C548.765381,394.224609 548.829224,394.124634 548.795288,394.414368 &#10;&#9;C549.120300,395.201294 549.479309,395.698517 549.838318,396.195740 &#10;&#9;C549.838318,396.195740 549.865417,396.099121 549.884766,396.379639 &#10;&#9;C550.219971,396.846710 550.535828,397.033295 550.851746,397.219879 &#10;&#9;C550.851746,397.219879 550.680847,397.107635 550.648071,397.524261 &#10;&#9;C551.325806,399.040405 552.036255,400.139923 552.746704,401.239441 &#10;&#9;C552.746704,401.239441 552.808899,401.134857 552.775696,401.427063 &#10;&#9;C553.107483,402.212921 553.472412,402.706604 553.837402,403.200287 &#10;&#9;C553.837402,403.200287 553.873535,403.082184 553.851929,403.379333 &#10;&#9;C554.189819,404.165283 554.549377,404.654114 554.908997,405.142914 &#10;&#9;C554.908997,405.142914 554.938538,405.050659 554.944580,405.326660 &#10;&#9;C555.248596,405.812958 555.546448,406.023254 555.844360,406.233551 &#10;&#9;C555.844360,406.233551 555.765869,406.086548 555.705078,406.443970 &#10;&#9;C556.021423,407.275635 556.398560,407.749847 556.775757,408.224060 &#10;&#9;C556.775757,408.224060 556.783936,408.127869 556.774536,408.465454 &#10;&#9;C557.474121,409.912140 558.182983,411.021271 558.891846,412.130402 &#10;&#9;C558.891846,412.130402 558.901550,412.051819 558.905334,412.407562 &#10;&#9;C559.023010,413.469452 559.136902,414.175629 559.250793,414.881775 &#10;&#9;C556.647400,416.184296 554.715149,416.094604 552.178955,413.847473 &#10;&#9;C549.549988,411.518188 545.615417,410.736755 542.472351,408.900879 &#10;&#9;C527.461487,400.132935 512.541504,391.209778 497.556641,382.397186 &#10;&#9;C489.839111,377.858459 482.038971,373.460297 474.302856,368.952820 &#10;&#9;C466.132263,364.192169 457.984833,359.391541 449.842682,354.582367 &#10;&#9;C436.589691,346.754364 423.426270,338.770325 410.062805,331.136200 &#10;&#9;C405.207153,328.362396 399.886505,326.402557 394.406494,324.058411 &#10;&#9;C391.855743,322.098389 389.930725,319.717896 387.459473,318.268768 &#10;&#9;C346.056427,293.990112 304.583710,269.830322 263.136841,245.626312 &#10;&#9;C262.009460,244.967941 260.997528,244.111862 260.499451,243.044250 &#10;&#9;C303.710815,242.858505 346.354584,242.944244 388.998047,243.106888 &#10;&#9;C413.645935,243.200897 438.293365,243.418915 462.940979,243.581116 &#10;&#9;C470.555481,257.191742 478.095612,270.844574 485.799194,284.404572 &#10;&#9;C504.594879,317.489105 523.466248,350.530640 542.636414,384.101501 &#10;&#9;C543.283020,384.795990 543.600403,384.978424 543.917786,385.160858 &#10;&#9;C543.917786,385.160858 543.868713,385.029572 543.784363,385.420441 &#10;&#9;C544.102051,386.399445 544.504089,386.987549 544.906189,387.575653 &#10;z"/>
  <path fill="#709D47" opacity="1.000000" stroke="none" d="&#10;M559.526794,415.067108 &#10;&#9;C559.136902,414.175629 559.023010,413.469452 558.865784,412.405518 &#10;&#9;C559.851013,412.514374 560.879517,412.980957 562.460693,413.698273 &#10;&#9;C562.994446,406.926849 563.811401,400.567078 563.930969,394.194183 &#10;&#9;C564.165039,381.718506 563.906494,369.234436 564.038879,356.755829 &#10;&#9;C564.278687,334.150635 564.655640,311.546875 565.203735,288.471680 &#10;&#9;C565.432068,288.000854 565.871277,287.993286 565.871216,287.993286 &#10;&#9;C565.907715,305.641449 566.096802,323.290985 565.939453,340.937408 &#10;&#9;C565.769165,360.034485 565.365051,379.130951 564.876465,398.222931 &#10;&#9;C564.696960,405.237885 563.984314,412.239166 563.514893,419.246704 &#10;&#9;C563.085999,419.360992 562.657104,419.475311 562.228210,419.589630 &#10;&#9;C561.419739,418.143890 560.611267,416.698181 559.526794,415.067108 &#10;z"/>
  <path fill="#74A243" opacity="1.000000" stroke="none" d="&#10;M565.934570,287.569489 &#10;&#9;C565.871277,287.993286 565.432068,288.000854 565.212402,288.003479 &#10;&#9;C565.339478,263.137482 565.581543,238.266785 566.078491,213.401169 &#10;&#9;C566.316345,201.501221 567.037476,189.610962 567.793579,177.398407 &#10;&#9;C568.015869,191.075043 568.087463,205.070740 567.928589,219.063828 &#10;&#9;C567.690857,240.000046 567.312134,260.934845 566.922180,281.868896 &#10;&#9;C566.889343,283.632965 566.318665,285.386993 565.934570,287.569489 &#10;z"/>
  <path fill="#709F3F" opacity="1.000000" stroke="none" d="&#10;M568.839111,164.515320 &#10;&#9;C568.516357,163.031815 568.048218,161.085312 568.042358,159.137436 &#10;&#9;C567.987427,140.710220 567.908813,122.281975 568.052063,103.855690 &#10;&#9;C568.132996,93.445885 568.636719,83.039742 568.905701,72.630814 &#10;&#9;C568.986023,69.522804 568.916504,66.410919 569.158936,62.922623 &#10;&#9;C569.402161,62.544426 569.680847,62.768147 569.680847,62.768147 &#10;&#9;C569.477173,80.696960 569.243164,98.625496 569.081482,116.554688 &#10;&#9;C568.988281,126.886772 569.015015,137.219925 568.981689,147.552582 &#10;&#9;C568.963928,153.052292 568.933105,158.551971 568.839111,164.515320 &#10;z"/>
  <path fill="#C5E742" opacity="1.000000" stroke="none" d="&#10;M569.722595,62.407642 &#10;&#9;C569.680847,62.768147 569.402161,62.544426 569.225098,62.514412 &#10;&#9;C567.916626,63.570988 566.785278,64.657578 565.388794,65.838287 &#10;&#9;C564.543640,64.991211 563.963623,64.050018 563.068604,63.088608 &#10;&#9;C564.868408,61.655476 566.983215,60.242554 569.600281,58.494072 &#10;&#9;C569.677002,60.155983 569.720703,61.101562 569.722595,62.407642 &#10;z"/>
  <path fill="#CAE73C" opacity="1.000000" stroke="none" d="&#10;M533.633545,79.977364 &#10;&#9;C532.929993,83.703438 529.833557,84.465706 526.237305,84.964760 &#10;&#9;C528.373901,83.324707 530.826477,81.675987 533.633545,79.977364 &#10;z"/>
  <path fill="#CBE93B" opacity="1.000000" stroke="none" d="&#10;M328.643738,200.961945 &#10;&#9;C327.448273,202.194229 325.921539,203.460037 324.034058,204.653381 &#10;&#9;C324.097351,203.922241 324.521362,203.263550 325.116089,202.350296 &#10;&#9;C326.295319,201.728973 327.303894,201.362198 328.643738,200.961945 &#10;z"/>
  <path fill="#CAE73C" opacity="1.000000" stroke="none" d="&#10;M511.636505,92.964020 &#10;&#9;C510.553711,93.957329 509.123413,94.986130 507.315582,95.995819 &#10;&#9;C508.388367,94.984299 509.838654,93.991913 511.636505,92.964020 &#10;z"/>
  <path fill="#C8E839" opacity="1.000000" stroke="none" d="&#10;M389.645172,164.979141 &#10;&#9;C388.555664,165.955490 387.121155,166.978760 385.307953,167.990082 &#10;&#9;C386.386230,166.994080 387.843201,166.010071 389.645172,164.979141 &#10;z"/>
  <path fill="#C8E839" opacity="1.000000" stroke="none" d="&#10;M394.632019,161.954285 &#10;&#9;C393.551575,162.958664 392.123627,163.999405 390.315918,165.009644 &#10;&#9;C391.385620,163.982971 392.835083,162.986816 394.632019,161.954285 &#10;z"/>
  <path fill="#C9E63C" opacity="1.000000" stroke="none" d="&#10;M443.651611,133.055267 &#10;&#9;C442.558716,133.962143 441.143982,134.989212 439.331512,135.990295 &#10;&#9;C440.399078,135.034698 441.864441,134.105087 443.651611,133.055267 &#10;z"/>
  <path fill="#CAE73C" opacity="1.000000" stroke="none" d="&#10;M554.641602,67.951248 &#10;&#9;C553.879822,68.606621 552.772156,69.304329 551.293457,69.988510 &#10;&#9;C552.046875,69.314514 553.171265,68.654045 554.641602,67.951248 &#10;z"/>
  <path fill="#C9E63C" opacity="1.000000" stroke="none" d="&#10;M435.643188,137.963287 &#10;&#9;C434.888245,138.632431 433.788910,139.338272 432.322266,140.006805 &#10;&#9;C433.069611,139.313004 434.184204,138.656494 435.643188,137.963287 &#10;z"/>
  <path fill="#C8E839" opacity="1.000000" stroke="none" d="&#10;M384.646362,167.960480 &#10;&#9;C383.891113,168.619843 382.788177,169.316040 381.317596,169.992142 &#10;&#9;C382.066193,169.313797 383.182434,168.655548 384.646362,167.960480 &#10;z"/>
  <path fill="#CBE93B" opacity="1.000000" stroke="none" d="&#10;M333.641327,197.969986 &#10;&#9;C332.882690,198.626038 331.779297,199.325333 330.306458,199.995544 &#10;&#9;C331.056885,199.315384 332.176727,198.664291 333.641327,197.969986 &#10;z"/>
  <path fill="#CBE93B" opacity="1.000000" stroke="none" d="&#10;M340.641235,193.957626 &#10;&#9;C339.886719,194.618439 338.787659,195.318512 337.320007,195.998230 &#10;&#9;C338.066528,195.317520 339.181641,194.657211 340.641235,193.957626 &#10;z"/>
  <path fill="#CAE73C" opacity="1.000000" stroke="none" d="&#10;M525.644287,84.960602 &#10;&#9;C524.883423,85.619522 523.778259,86.322968 522.305298,86.994644 &#10;&#9;C523.058289,86.310295 524.179199,85.657715 525.644287,84.960602 &#10;z"/>
  <path fill="#CAE73C" opacity="1.000000" stroke="none" d="&#10;M520.639526,87.953201 &#10;&#9;C519.881287,88.612991 518.778564,89.312996 517.305298,89.994751 &#10;&#9;C518.054810,89.315460 519.174927,88.654434 520.639526,87.953201 &#10;z"/>
  <path fill="#CAE73C" opacity="1.000000" stroke="none" d="&#10;M516.645386,89.960724 &#10;&#9;C516.156738,90.631584 515.322388,91.335236 514.119324,92.052032 &#10;&#9;C514.600281,91.374626 515.449951,90.684074 516.645386,89.960724 &#10;z"/>
  <path fill="#C9E840" opacity="1.000000" stroke="none" d="&#10;M421.641022,145.959686 &#10;&#9;C421.148895,146.628769 420.313019,147.336639 419.106384,148.054657 &#10;&#9;C419.589508,147.376007 420.443390,146.687241 421.641022,145.959686 &#10;z"/>
  <path fill="#C5E742" opacity="1.000000" stroke="none" d="&#10;M557.659668,65.965912 &#10;&#9;C557.196228,66.596558 556.402039,67.271889 555.259155,67.959122 &#10;&#9;C555.716614,67.317543 556.522766,66.664070 557.659668,65.965912 &#10;z"/>
  <path fill="#C9E63C" opacity="1.000000" stroke="none" d="&#10;M438.655701,135.972763 &#10;&#9;C438.195618,136.613266 437.412323,137.302292 436.281189,137.981537 &#10;&#9;C436.733032,137.321594 437.532776,136.671448 438.655701,135.972763 &#10;z"/>
  <path fill="#709F3F" opacity="1.000000" stroke="none" d="&#10;M568.820068,174.568909 &#10;&#9;C568.640564,174.106964 568.540283,173.288605 568.593567,172.248962 &#10;&#9;C568.797913,172.755951 568.848633,173.484238 568.820068,174.568909 &#10;z"/>
  <path fill="#CAE73C" opacity="1.000000" stroke="none" d="&#10;M542.684143,74.950897 &#10;&#9;C542.492249,75.261848 541.966003,75.608940 541.116943,76.002365 &#10;&#9;C541.312683,75.694809 541.831299,75.340927 542.684143,74.950897 &#10;z"/>
  <path fill="#709F3F" opacity="1.000000" stroke="none" d="&#10;M568.802246,169.655304 &#10;&#9;C568.650269,169.439117 568.574768,168.898453 568.637695,168.182892 &#10;&#9;C568.810303,168.448944 568.844543,168.889862 568.802246,169.655304 &#10;z"/>
  <path fill="#CAE73C" opacity="1.000000" stroke="none" d="&#10;M537.671997,77.956528 &#10;&#9;C537.478943,78.286224 536.945312,78.654549 536.073853,79.046974 &#10;&#9;C536.267761,78.712440 536.799561,78.353806 537.671997,77.956528 &#10;z"/>
  <path fill="#CAE73C" opacity="1.000000" stroke="none" d="&#10;M550.703247,69.964188 &#10;&#9;C550.531677,70.258293 550.045593,70.603920 549.253662,70.971436 &#10;&#9;C549.428040,70.667442 549.908386,70.341576 550.703247,69.964188 &#10;z"/>
  <path fill="#C8E839" opacity="1.000000" stroke="none" d="&#10;M379.679382,170.955200 &#10;&#9;C379.486969,171.274857 378.958588,171.627731 378.102692,172.018982 &#10;&#9;C378.297943,171.701035 378.820679,171.344711 379.679382,170.955200 &#10;z"/>
  <path fill="#CAE73C" opacity="1.000000" stroke="none" d="&#10;M503.674255,97.948517 &#10;&#9;C503.488007,98.277100 502.964172,98.639915 502.109253,99.033142 &#10;&#9;C502.297699,98.703270 502.817200,98.343010 503.674255,97.948517 &#10;z"/>
  <path fill="#CBE93B" opacity="1.000000" stroke="none" d="&#10;M352.647003,186.931366 &#10;&#9;C352.462311,187.240753 351.947723,187.603134 351.109375,188.010925 &#10;&#9;C351.296112,187.699020 351.806610,187.341690 352.647003,186.931366 &#10;z"/>
  <path fill="#CAE73C" opacity="1.000000" stroke="none" d="&#10;M506.693542,95.970322 &#10;&#9;C506.529846,96.276176 506.047394,96.625305 505.256470,96.973969 &#10;&#9;C505.423584,96.653534 505.899170,96.333565 506.693542,95.970322 &#10;z"/>
  <path fill="#C9E63C" opacity="1.000000" stroke="none" d="&#10;M447.657593,130.927399 &#10;&#9;C447.474304,131.233383 446.960022,131.597580 446.121338,132.006866 &#10;&#9;C446.306793,131.696533 446.816681,131.341080 447.657593,130.927399 &#10;z"/>
  <path fill="#CAE73C" opacity="1.000000" stroke="none" d="&#10;M498.700928,100.954475 &#10;&#9;C498.522430,101.230080 498.025391,101.540390 497.230164,101.884453 &#10;&#9;C497.415466,101.608528 497.898926,101.298859 498.700928,100.954475 &#10;z"/>
  <path fill="#CBE93B" opacity="1.000000" stroke="none" d="&#10;M336.724182,196.024414 &#10;&#9;C336.769653,196.233032 336.536804,196.522522 336.043060,196.927521 &#10;&#9;C336.003387,196.730438 336.224579,196.417862 336.724182,196.024414 &#10;z"/>
  <path fill="#CBE93B" opacity="1.000000" stroke="none" d="&#10;M329.731323,200.002518 &#10;&#9;C329.797699,200.208069 329.601471,200.491394 329.165802,200.883911 &#10;&#9;C329.107117,200.688843 329.287872,200.384567 329.731323,200.002518 &#10;z"/>
  <path fill="#C5E742" opacity="1.000000" stroke="none" d="&#10;M558.963501,65.123901 &#10;&#9;C558.989563,65.382263 558.708191,65.602455 558.173950,65.910065 &#10;&#9;C558.166138,65.693573 558.411011,65.389656 558.963501,65.123901 &#10;z"/>
  <path fill="#CBE93B" opacity="1.000000" stroke="none" d="&#10;M334.944153,197.135742 &#10;&#9;C334.971985,197.397690 334.699249,197.615189 334.176910,197.910873 &#10;&#9;C334.166077,197.689804 334.404816,197.390549 334.944153,197.135742 &#10;z"/>
  <path fill="#C5E742" opacity="1.000000" stroke="none" d="&#10;M562.006348,63.126358 &#10;&#9;C562.039001,63.408398 561.762024,63.638336 561.220154,63.922600 &#10;&#9;C561.202393,63.676037 561.449524,63.375149 562.006348,63.126358 &#10;z"/>
  <path fill="#C5E742" opacity="1.000000" stroke="none" d="&#10;M560.698120,64.028297 &#10;&#9;C560.751709,64.259880 560.517944,64.567574 559.996948,64.967133 &#10;&#9;C559.943359,64.740799 560.177063,64.422607 560.698120,64.028297 &#10;z"/>
  <path fill="#CAE73C" opacity="1.000000" stroke="none" d="&#10;M546.950562,72.142303 &#10;&#9;C546.963379,72.420837 546.647461,72.658539 546.043579,72.977905 &#10;&#9;C546.044312,72.740204 546.333008,72.420830 546.950562,72.142303 &#10;z"/>
  <path fill="#CAE73C" opacity="1.000000" stroke="none" d="&#10;M504.728333,97.010147 &#10;&#9;C504.791626,97.218117 504.587280,97.492897 504.148376,97.881729 &#10;&#9;C504.096130,97.689507 504.278442,97.383224 504.728333,97.010147 &#10;z"/>
  <path fill="#C9E840" opacity="1.000000" stroke="none" d="&#10;M424.990784,144.127075 &#10;&#9;C425.002472,144.414062 424.673737,144.657623 424.045715,144.981873 &#10;&#9;C424.047760,144.736267 424.349091,144.409958 424.990784,144.127075 &#10;z"/>
  <path fill="#C9E840" opacity="1.000000" stroke="none" d="&#10;M426.717896,143.032089 &#10;&#9;C426.762512,143.246796 426.523163,143.534851 426.019836,143.937500 &#10;&#9;C425.981903,143.736542 426.207916,143.420990 426.717896,143.032089 &#10;z"/>
  <path fill="#C9E63C" opacity="1.000000" stroke="none" d="&#10;M428.031952,142.151260 &#10;&#9;C428.058960,142.424652 427.777802,142.653793 427.228699,142.934753 &#10;&#9;C427.215088,142.693390 427.469452,142.400208 428.031952,142.151260 &#10;z"/>
  <path fill="#C9E63C" opacity="1.000000" stroke="none" d="&#10;M429.893555,141.152039 &#10;&#9;C429.911163,141.411987 429.617432,141.637802 429.060577,141.959290 &#10;&#9;C429.059052,141.742615 429.320679,141.430252 429.893555,141.152039 &#10;z"/>
  <path fill="#C9E63C" opacity="1.000000" stroke="none" d="&#10;M431.717529,140.021454 &#10;&#9;C431.766083,140.232025 431.535919,140.514771 431.052338,140.915314 &#10;&#9;C431.012238,140.719940 431.225555,140.406769 431.717529,140.021454 &#10;z"/>
  <path fill="#C9E63C" opacity="1.000000" stroke="none" d="&#10;M444.978088,132.134171 &#10;&#9;C445.006134,132.410782 444.726746,132.632156 444.187836,132.919281 &#10;&#9;C444.175812,132.682999 444.423248,132.380966 444.978088,132.134171 &#10;z"/>
  <path fill="#CAE73C" opacity="1.000000" stroke="none" d="&#10;M499.728577,100.018372 &#10;&#9;C499.793213,100.228058 499.592255,100.505829 499.152161,100.891075 &#10;&#9;C499.096344,100.694519 499.279663,100.390488 499.728577,100.018372 &#10;z"/>
  <path fill="#CAE73C" opacity="1.000000" stroke="none" d="&#10;M500.974854,99.147934 &#10;&#9;C501.005493,99.422073 500.734741,99.644402 500.207733,99.926071 &#10;&#9;C500.192139,99.688980 500.432831,99.392555 500.974854,99.147934 &#10;z"/>
  <path fill="#C9E840" opacity="1.000000" stroke="none" d="&#10;M422.979095,145.123840 &#10;&#9;C423.006958,145.397278 422.724335,145.619720 422.182068,145.915222 &#10;&#9;C422.171143,145.683136 422.419891,145.377991 422.979095,145.123840 &#10;z"/>
  <path fill="#CAE73C" opacity="1.000000" stroke="none" d="&#10;M513.010376,92.133057 &#10;&#9;C513.033447,92.400070 512.744751,92.623962 512.190674,92.917694 &#10;&#9;C512.183105,92.688324 512.440857,92.389130 513.010376,92.133057 &#10;z"/>
  <path fill="#CAE73C" opacity="1.000000" stroke="none" d="&#10;M521.725281,86.998947 &#10;&#9;C521.790222,87.206963 521.584778,87.483208 521.146973,87.879959 &#10;&#9;C521.094727,87.689369 521.274841,87.378273 521.725281,86.998947 &#10;z"/>
  <path fill="#CAE73C" opacity="1.000000" stroke="none" d="&#10;M534.997314,79.128464 &#10;&#9;C535.023010,79.397926 534.738342,79.620308 534.192261,79.913315 &#10;&#9;C534.182922,79.683083 534.434998,79.382233 534.997314,79.128464 &#10;z"/>
  <path fill="#CAE73C" opacity="1.000000" stroke="none" d="&#10;M538.730225,77.013748 &#10;&#9;C538.793396,77.221069 538.590027,77.496078 538.152039,77.884117 &#10;&#9;C538.099548,77.691910 538.281616,77.386673 538.730225,77.013748 &#10;z"/>
  <path fill="#CAE73C" opacity="1.000000" stroke="none" d="&#10;M539.992004,76.138733 &#10;&#9;C540.022339,76.417145 539.745544,76.642014 539.207458,76.926491 &#10;&#9;C539.192444,76.685799 539.438599,76.385490 539.992004,76.138733 &#10;z"/>
  <path fill="#CAE73C" opacity="1.000000" stroke="none" d="&#10;M543.730774,74.026489 &#10;&#9;C543.789856,74.231178 543.585693,74.504692 543.144653,74.886765 &#10;&#9;C543.094299,74.695328 543.280945,74.395325 543.730774,74.026489 &#10;z"/>
  <path fill="#CAE73C" opacity="1.000000" stroke="none" d="&#10;M545.032837,73.127213 &#10;&#9;C545.064636,73.407814 544.782410,73.642715 544.229370,73.931221 &#10;&#9;C544.212036,73.683723 544.465454,73.382622 545.032837,73.127213 &#10;z"/>
  <path fill="#C8E839" opacity="1.000000" stroke="none" d="&#10;M380.734619,170.020355 &#10;&#9;C380.792542,170.218872 380.591339,170.496704 380.153381,170.885284 &#10;&#9;C380.102936,170.697220 380.289215,170.398453 380.734619,170.020355 &#10;z"/>
  <path fill="#CBE93B" opacity="1.000000" stroke="none" d="&#10;M343.029236,192.127167 &#10;&#9;C343.057892,192.402267 342.773956,192.635056 342.219696,192.923996 &#10;&#9;C342.205139,192.681717 342.460907,192.383270 343.029236,192.127167 &#10;z"/>
  <path fill="#CBE93B" opacity="1.000000" stroke="none" d="&#10;M344.945190,191.125900 &#10;&#9;C344.958557,191.404877 344.641449,191.641098 344.038330,191.964737 &#10;&#9;C344.039795,191.729156 344.327271,191.406158 344.945190,191.125900 &#10;z"/>
  <path fill="#CBE93B" opacity="1.000000" stroke="none" d="&#10;M346.702148,189.987778 &#10;&#9;C346.743652,190.175446 346.521393,190.479370 346.041016,190.911880 &#10;&#9;C346.001434,190.728317 346.219940,190.416183 346.702148,189.987778 &#10;z"/>
  <path fill="#CBE93B" opacity="1.000000" stroke="none" d="&#10;M347.638306,189.114838 &#10;&#9;C347.696686,189.353439 347.479523,189.554291 347.070648,189.874115 &#10;&#9;C347.049713,189.698029 347.210999,189.392700 347.638306,189.114838 &#10;z"/>
  <path fill="#CBE93B" opacity="1.000000" stroke="none" d="&#10;M349.962677,188.143860 &#10;&#9;C349.981995,188.428436 349.674438,188.662048 349.086884,188.978683 &#10;&#9;C349.083191,188.738785 349.359497,188.415833 349.962677,188.143860 &#10;z"/>
  <path fill="#CAE73C" opacity="1.000000" stroke="none" d="&#10;M548.735840,71.023163 &#10;&#9;C548.776428,71.224434 548.539490,71.503738 548.052734,71.908768 &#10;&#9;C548.021423,71.723389 548.239807,71.412292 548.735840,71.023163 &#10;z"/>
  <path fill="#C8E839" opacity="1.000000" stroke="none" d="&#10;M375.741882,173.016678 &#10;&#9;C375.781860,173.206207 375.559174,173.468979 375.104004,173.850693 &#10;&#9;C375.074066,173.676392 375.276611,173.383163 375.741882,173.016678 &#10;z"/>
  <path fill="#C8E839" opacity="1.000000" stroke="none" d="&#10;M376.993408,172.142883 &#10;&#9;C377.020172,172.409042 376.741150,172.633148 376.201904,172.924255 &#10;&#9;C376.190338,172.694427 376.438995,172.397629 376.993408,172.142883 &#10;z"/>
  <path fill="#CBE93B" opacity="1.000000" stroke="none" d="&#10;M341.721466,193.010254 &#10;&#9;C341.789612,193.223618 341.587677,193.498001 341.152191,193.885895 &#10;&#9;C341.096222,193.690048 341.273773,193.380661 341.721466,193.010254 &#10;z"/>
  <path fill="#C8E839" opacity="1.000000" stroke="none" d="&#10;M395.911438,161.127396 &#10;&#9;C395.940979,161.388336 395.672180,161.603058 395.160034,161.903748 &#10;&#9;C395.148834,161.686859 395.380951,161.384018 395.911438,161.127396 &#10;z"/>
  <path fill="#C9E840" opacity="1.000000" stroke="none" d="&#10;M409.721497,153.019745 &#10;&#9;C409.762146,153.227448 409.519226,153.509354 409.020264,153.916077 &#10;&#9;C408.988770,153.725250 409.213318,153.409607 409.721497,153.019745 &#10;z"/>
  <path fill="#C9E840" opacity="1.000000" stroke="none" d="&#10;M411.032837,152.136063 &#10;&#9;C411.060181,152.415268 410.772858,152.645874 410.214172,152.932709 &#10;&#9;C410.201233,152.688446 410.459686,152.387955 411.032837,152.136063 &#10;z"/>
  <path fill="#C9E840" opacity="1.000000" stroke="none" d="&#10;M412.939819,151.137192 &#10;&#9;C412.954315,151.406311 412.643280,151.640640 412.052979,151.968201 &#10;&#9;C412.053894,151.741776 412.334076,151.422104 412.939819,151.137192 &#10;z"/>
  <path fill="#C9E840" opacity="1.000000" stroke="none" d="&#10;M414.716675,150.032410 &#10;&#9;C414.762848,150.246964 414.527679,150.538406 414.025543,150.939728 &#10;&#9;C413.984161,150.736160 414.209778,150.422729 414.716675,150.032410 &#10;z"/>
  <path fill="#C9E840" opacity="1.000000" stroke="none" d="&#10;M416.024078,149.130341 &#10;&#9;C416.055450,149.409470 415.773956,149.641571 415.224274,149.930634 &#10;&#9;C415.207794,149.686172 415.459534,149.384750 416.024078,149.130341 &#10;z"/>
  <path fill="#C9E840" opacity="1.000000" stroke="none" d="&#10;M417.969910,148.134430 &#10;&#9;C417.979980,148.410294 417.656067,148.649582 417.039795,148.974426 &#10;&#9;C417.043610,148.739258 417.339783,148.418564 417.969910,148.134430 &#10;z"/>
  <path fill="#CBE93B" opacity="1.000000" stroke="none" d="&#10;M462.970123,243.165802 &#10;&#9;C438.293365,243.418915 413.645935,243.200897 388.998047,243.106888 &#10;&#9;C346.354584,242.944244 303.710815,242.858505 260.615173,242.686020 &#10;&#9;C261.550537,241.450150 262.937927,240.268768 264.647705,239.121948 &#10;&#9;C269.000854,240.098892 272.990295,241.501038 277.072876,241.868683 &#10;&#9;C282.319458,242.341171 287.640869,241.982010 292.930023,241.983185 &#10;&#9;C346.994324,241.995255 401.058594,242.016663 455.122894,241.991425 &#10;&#9;C457.592743,241.990280 460.062439,241.570175 462.969513,241.241013 &#10;&#9;C463.270966,241.674713 463.135101,242.212601 462.970123,243.165802 &#10;z"/>
  <path fill="#CBE93B" opacity="1.000000" stroke="none" d="&#10;M310.537903,212.156769 &#10;&#9;C305.119446,215.724075 299.361664,219.290955 293.243835,222.837097 &#10;&#9;C298.655396,219.263031 304.426971,215.709686 310.537903,212.156769 &#10;z"/>
  <path fill="#CBE93B" opacity="1.000000" stroke="none" d="&#10;M323.286011,204.629974 &#10;&#9;C320.347870,206.741806 317.057312,208.868927 313.407898,210.947800 &#10;&#9;C316.343933,208.814789 319.638794,206.730011 323.286011,204.629974 &#10;z"/>
  <path fill="#CBE93B" opacity="1.000000" stroke="none" d="&#10;M276.597931,232.099075 &#10;&#9;C275.303558,233.262207 273.672302,234.426376 271.683868,235.469620 &#10;&#9;C272.971466,234.265823 274.616272,233.182968 276.597931,232.099075 &#10;z"/>
  <path fill="#CBE93B" opacity="1.000000" stroke="none" d="&#10;M281.560944,229.134644 &#10;&#9;C280.656464,230.059601 279.430206,230.946411 277.829254,231.746948 &#10;&#9;C278.716095,230.805954 279.977661,229.951218 281.560944,229.134644 &#10;z"/>
  <path fill="#CBE93B" opacity="1.000000" stroke="none" d="&#10;M286.578613,226.191208 &#10;&#9;C285.759583,227.096222 284.621948,227.971512 283.149780,228.802216 &#10;&#9;C283.963470,227.892242 285.111725,227.026855 286.578613,226.191208 &#10;z"/>
  <path fill="#CBE93B" opacity="1.000000" stroke="none" d="&#10;M269.327881,236.542297 &#10;&#9;C268.421356,237.391434 267.175964,238.225281 265.591766,239.034088 &#10;&#9;C266.498291,238.181717 267.743652,237.354370 269.327881,236.542297 &#10;z"/>
  <path fill="#CBE93B" opacity="1.000000" stroke="none" d="&#10;M291.586670,223.234589 &#10;&#9;C291.331940,223.798920 290.780273,224.308411 289.921082,224.774109 &#10;&#9;C290.172272,224.213470 290.730988,223.696625 291.586670,223.234589 &#10;z"/>
  <path fill="#CBE93B" opacity="1.000000" stroke="none" d="&#10;M312.591797,210.941071 &#10;&#9;C312.598389,211.202408 312.334167,211.417053 311.808838,211.613190 &#10;&#9;C311.805450,211.361252 312.063232,211.127792 312.591797,210.941071 &#10;z"/>
  <path fill="#CBE93B" opacity="1.000000" stroke="none" d="&#10;M288.630737,225.091187 &#10;&#9;C288.738403,225.463638 288.491241,225.663406 287.901581,225.727264 &#10;&#9;C287.896332,225.488739 288.135284,225.264450 288.630737,225.091187 &#10;z"/>
  <path fill="#CBE93B" opacity="1.000000" stroke="none" d="&#10;M270.487061,235.729858 &#10;&#9;C270.559906,236.009369 270.354767,236.283920 269.879456,236.579376 &#10;&#9;C269.809204,236.308487 270.009155,236.016678 270.487061,235.729858 &#10;z"/>
  <path fill="#709D47" opacity="1.000000" stroke="none" d="&#10;M548.815186,393.856079 &#10;&#9;C547.806213,392.733154 546.846985,391.241699 545.830383,389.411743 &#10;&#9;C546.803589,390.544647 547.834290,392.016083 548.815186,393.856079 &#10;z"/>
  <path fill="#709D47" opacity="1.000000" stroke="none" d="&#10;M558.913940,411.769836 &#10;&#9;C558.182983,411.021271 557.474121,409.912140 556.726318,408.467743 &#10;&#9;C557.437012,409.224731 558.186523,410.316986 558.913940,411.769836 &#10;z"/>
  <path fill="#709D47" opacity="1.000000" stroke="none" d="&#10;M552.794800,400.868652 &#10;&#9;C552.036255,400.139923 551.325806,399.040405 550.592896,397.610291 &#10;&#9;C551.327881,398.352386 552.085327,399.425140 552.794800,400.868652 &#10;z"/>
  <path fill="#709D47" opacity="1.000000" stroke="none" d="&#10;M553.818481,402.881897 &#10;&#9;C553.472412,402.706604 553.107483,402.212921 552.720703,401.401031 &#10;&#9;C553.065796,401.576385 553.432617,402.069977 553.818481,402.881897 &#10;z"/>
  <path fill="#709D47" opacity="1.000000" stroke="none" d="&#10;M556.775269,407.903717 &#10;&#9;C556.398560,407.749847 556.021423,407.275635 555.633423,406.486542 &#10;&#9;C556.006653,406.642212 556.390686,407.112793 556.775269,407.903717 &#10;z"/>
  <path fill="#709D47" opacity="1.000000" stroke="none" d="&#10;M554.878052,404.829834 &#10;&#9;C554.549377,404.654114 554.189819,404.165283 553.791870,403.365051 &#10;&#9;C554.117981,403.541321 554.482544,404.029022 554.878052,404.829834 &#10;z"/>
  <path fill="#709D47" opacity="1.000000" stroke="none" d="&#10;M544.877197,387.214661 &#10;&#9;C544.504089,386.987549 544.102051,386.399445 543.719482,385.446899 &#10;&#9;C544.108643,385.672882 544.478394,386.263275 544.877197,387.214661 &#10;z"/>
  <path fill="#709D47" opacity="1.000000" stroke="none" d="&#10;M549.822083,395.877441 &#10;&#9;C549.479309,395.698517 549.120300,395.201294 548.742737,394.386841 &#10;&#9;C549.084717,394.566132 549.445312,395.062622 549.822083,395.877441 &#10;z"/>
  <path fill="#709D47" opacity="1.000000" stroke="none" d="&#10;M543.772461,384.934998 &#10;&#9;C543.600403,384.978424 543.283020,384.795990 542.878723,384.329010 &#10;&#9;C543.070251,384.266052 543.348694,384.487579 543.772461,384.934998 &#10;z"/>
  <path fill="#709D47" opacity="1.000000" stroke="none" d="&#10;M545.835938,388.929138 &#10;&#9;C545.680054,388.938995 545.412415,388.723328 545.087952,388.244537 &#10;&#9;C545.262146,388.222137 545.493103,388.462860 545.835938,388.929138 &#10;z"/>
  <path fill="#709D47" opacity="1.000000" stroke="none" d="&#10;M550.727478,396.981445 &#10;&#9;C550.535828,397.033295 550.219971,396.846710 549.835449,396.370300 &#10;&#9;C550.045593,396.301331 550.324402,396.522186 550.727478,396.981445 &#10;z"/>
  <path fill="#709D47" opacity="1.000000" stroke="none" d="&#10;M555.731323,405.991699 &#10;&#9;C555.546448,406.023254 555.248596,405.812958 554.897949,405.313843 &#10;&#9;C555.102844,405.266632 555.360535,405.508240 555.731323,405.991699 &#10;z"/>
</svg>